<?xml version="1.0" standalone="no"?>
<!DOCTYPE svg PUBLIC "-//W3C//DTD SVG 20010904//EN"
 "http://www.w3.org/TR/2001/REC-SVG-20010904/DTD/svg10.dtd">
<svg version="1.0" xmlns="http://www.w3.org/2000/svg"
 width="968.000000pt" height="968.000000pt" viewBox="0 0 968.000000 968.000000"
 preserveAspectRatio="xMidYMid meet">
<metadata>
Created by potrace 1.14, written by Peter Selinger 2001-2017
</metadata>
<g transform="translate(0.000000,968.000000) scale(0.100000,-0.100000)"
fill="#000000" stroke="none">
<path d="M5284 6730 c-238 -118 -287 -447 -95 -637 74 -73 101 -82 157 -54 69
33 137 103 175 179 32 63 34 73 34 172 0 99 -2 109 -33 170 -17 36 -43 77 -56
92 -31 35 -114 98 -129 98 -7 0 -31 -9 -53 -20z"/>
<path d="M4868 6225 c-2 -2 -27 -5 -55 -8 -104 -11 -225 -90 -279 -183 l-26
-43 28 -51 c101 -186 328 -261 519 -171 70 32 150 106 177 162 16 31 15 35 -7
78 -43 84 -132 162 -216 190 -37 12 -136 30 -141 26z"/>
<path d="M5619 6181 c-36 -9 -89 -32 -118 -50 -53 -35 -124 -113 -136 -151
-17 -53 93 -188 190 -236 180 -87 393 -31 507 133 34 50 33 70 -8 134 -90 143
-268 213 -435 170z"/>
<path d="M5260 5887 c-58 -27 -141 -110 -173 -173 -90 -178 -36 -397 126 -508
61 -42 72 -41 153 15 137 94 201 278 152 439 -30 97 -105 192 -185 233 -25 13
-32 13 -73 -6z"/>
<path d="M4217 5503 c-2 -5 -4 -573 -4 -1264 l0 -1256 289 0 288 0 0 1263 0
1264 -284 0 c-157 0 -287 -3 -289 -7z"/>
<path d="M7839 5498 c-5 -69 -1 -2497 4 -2505 7 -12 566 -16 568 -4 0 3 1 121
2 261 l2 255 81 84 80 84 45 -74 c24 -41 48 -82 54 -92 5 -9 79 -131 164 -271
l154 -253 331 0 c182 0 334 2 339 4 4 2 2 12 -3 21 -23 36 -54 85 -309 484
-146 227 -286 445 -312 484 l-47 72 25 28 c85 99 377 437 387 447 6 7 38 44
71 82 33 39 62 72 65 75 20 20 70 82 70 88 0 4 -148 6 -329 5 l-329 -1 -47
-51 c-25 -27 -54 -58 -63 -69 -22 -25 -169 -188 -203 -224 -42 -46 -183 -200
-200 -219 -9 -11 -18 -19 -21 -19 -2 0 -4 291 -3 648 0 356 -1 653 -3 660 -3
9 -70 12 -288 12 -220 0 -284 -3 -285 -12z"/>
<path d="M10 4212 l0 -1230 289 1 289 1 1 440 c0 243 0 446 0 452 1 8 35 11
107 10 l106 -1 227 -450 226 -450 328 -2 c180 -1 327 0 327 2 0 3 -30 62 -66
132 -37 71 -100 193 -142 273 -41 80 -94 181 -117 225 -127 241 -195 374 -195
383 0 5 26 19 58 30 174 64 335 212 403 369 37 86 57 203 54 315 -4 115 -7
136 -36 228 -67 213 -245 375 -496 449 -150 45 -225 49 -810 51 l-553 1 0
-1229z m1074 733 c152 -36 226 -123 231 -275 4 -91 -13 -152 -56 -203 -33 -40
-100 -79 -159 -93 -19 -4 -42 -9 -50 -12 -8 -2 -115 -5 -237 -7 l-223 -3 0 42
c-1 74 -1 470 -1 519 l1 48 222 -2 c131 -1 242 -6 272 -14z"/>
<path d="M3007 4824 c-1 -1 -24 -5 -52 -8 -139 -18 -268 -60 -380 -124 -235
-136 -390 -362 -439 -639 -12 -72 -14 -288 -3 -338 3 -11 8 -40 12 -64 11 -68
51 -177 91 -250 139 -253 390 -417 704 -460 275 -38 676 42 897 178 24 14 43
30 43 34 0 6 -168 374 -177 386 -1 2 -24 -10 -50 -27 -43 -27 -86 -48 -165
-80 -27 -11 -126 -36 -191 -48 -70 -13 -244 -11 -312 3 -182 38 -322 164 -328
294 l-2 43 670 1 670 0 8 50 c14 93 10 284 -7 360 -2 6 -6 28 -11 50 -33 164
-176 376 -321 476 -116 80 -264 135 -414 155 -41 6 -238 12 -243 8z m233 -438
c119 -44 181 -119 204 -247 l4 -26 -379 0 -379 0 0 24 c0 40 48 129 90 167 47
42 112 75 184 91 69 17 220 11 276 -9z"/>
<path d="M6828 4824 c-2 -1 -24 -5 -50 -8 -131 -18 -259 -79 -353 -170 -30
-30 -55 -51 -56 -47 0 3 -1 43 -1 89 0 45 -3 82 -6 82 -11 1 -494 1 -534 1
l-38 -1 0 -894 0 -893 289 0 288 0 1 496 c0 273 3 516 7 540 9 58 49 141 88
181 68 70 144 100 255 102 156 2 270 -73 311 -207 20 -64 21 -88 21 -590 l0
-523 291 1 290 0 -4 641 c-4 718 -1 684 -80 845 -92 190 -290 322 -517 347
-59 7 -198 12 -202 8z"/>
<path d="M5005 4770 c-1 -3 -2 -406 -2 -896 l0 -892 286 2 286 1 0 893 0 894
-283 1 c-156 1 -285 0 -287 -3z"/>
</g>
</svg>
